<?xml version="1.0" standalone="no"?><!DOCTYPE svg PUBLIC "-//W3C//DTD SVG 1.1//EN" "http://www.w3.org/Graphics/SVG/1.1/DTD/svg11.dtd"><svg t="1783157545571" class="icon" viewBox="0 0 1024 1024" version="1.1" xmlns="http://www.w3.org/2000/svg" p-id="1814" xmlns:xlink="http://www.w3.org/1999/xlink" width="200" height="200"><path d="M512 960A448 448 0 1 0 512 64a448 448 0 0 0 0 896z m226.304-674.24a44.8 44.8 0 0 1 0 63.36L575.424 512.064l162.88 162.88a44.8 44.8 0 1 1-63.36 63.36L512.064 575.424l-162.944 162.88a44.8 44.8 0 1 1-63.36-63.36l162.944-162.88-162.944-162.944a44.8 44.8 0 1 1 63.36-63.36l162.944 162.944 162.88-162.944a44.8 44.8 0 0 1 63.36 0z" fill="#F21D1D" p-id="1815"></path></svg>