<?xml version="1.0" standalone="no"?><!DOCTYPE svg PUBLIC "-//W3C//DTD SVG 1.1//EN" "http://www.w3.org/Graphics/SVG/1.1/DTD/svg11.dtd"><svg t="1709365792049" class="icon" viewBox="0 0 1024 1024" version="1.1" xmlns="http://www.w3.org/2000/svg" p-id="5171" xmlns:xlink="http://www.w3.org/1999/xlink" width="64" height="64"><path d="M1002.709333 371.841219L851.709562 133.751467c-13.185219-20.7616-40.738133-26.904381-61.561905-13.833753L36.551924 596.655543c-20.766476 13.185219-26.904381 40.738133-13.861791 61.442438L173.689905 896.21821c13.186438 20.709181 40.738133 26.847086 61.505828 13.777676l753.623772-476.704915c20.823771-13.192533 27.079924-40.711314 13.889828-61.449752z m-30.076343 35.861943L219.009219 884.470248c-6.665752 4.199619-15.390476 2.233295-19.590095-4.404419L48.419352 641.946819c-4.200838-6.666971-2.233295-15.362438 4.432458-19.619352l753.653028-476.737829c6.671848-4.171581 15.42339-2.200381 19.562057 4.437333l151.061943 238.115353c4.052114 6.523124 2.056533 15.275886-4.495848 19.560838zM322.985448 256.618057l12.514742 30.014172 16.214553-28.166096 32.394971-2.614857-21.82339-24.143238 7.432533-31.575771-29.609447 13.309562-27.813791-16.833829 3.523048 32.338895-24.671086 21.033448 31.837867 6.637714z m191.885409-89.352533l-15.567238-28.575695-13.185219 29.752076-32.014629 6.109866 24.171277 21.675886-4.171581 32.219429 28.195352-16.301105 29.404648 13.953219-6.785219-31.837867 22.290285-23.61539-32.337676-3.380419z m292.548267 478.676114l-25.762134-19.799771-0.11459 32.457143-26.904381 18.243047 30.985752 10.220495 9.133105 31.161296 19.209753-26.229029 32.514438 0.910629-19.090286-26.372877 11.014095-30.461561-30.985752 9.870628zM702.266514 775.350857l-12.275809-30.104381-16.481524 28.052724-32.366933 2.349105 21.61859 24.260266-7.695848 31.542858 29.781334-13.009677 27.700419 17.209296-3.262172-32.366934 24.671086-21.000533-31.689143-6.932724z m-192.624152 88.00061l15.424609 28.695162 13.452191-29.666743 32.014628-5.723429-24.028647-21.914819 4.409295-32.190171-28.314819 16.009752-29.257143-14.1568 6.519467 31.775695-22.614553 23.530057 32.394972 3.641296zM221.09501 382.417676l25.614628 20.119162 0.380343-32.485181 27.023848-18.152838-30.813867-10.428952-8.900267-31.3088-19.44259 26.052266-32.514438-1.176381 18.82819 26.494781-11.223771 30.548115 31.047924-9.662172zM106.691048 522.665448c-3.4048-137.519543 63.47581-273.481143 188.071009-352.285258 124.623238-78.805333 276.124038-81.038629 399.190553-19.295085l29.724038-18.800153c-36.419048-20.353219-75.600457-35.247543-116.866438-44.500114-55.133867-12.395276-111.290514-13.948343-166.805943-4.814019-57.480533 9.513448-111.818362 30.251886-161.456762 61.70941-49.609143 31.456305-91.671162 71.637333-124.862172 119.514209-32.132876 46.171429-54.718171 97.604267-67.142704 152.646705-9.252571 41.205029-12.542781 82.972038-9.662172 124.596419l29.810591-18.772114z m809.285485-21.028572c3.552305 137.519543-63.328305 273.481143-187.923504 352.257219-124.5952 78.890667-276.122819 81.066667-399.162515 19.324343l-29.781333 18.828191c36.419048 20.294705 75.628495 35.220724 116.900571 44.470857 55.127771 12.395276 111.285638 14.010514 166.799848 4.814019 57.480533-9.514667 111.819581-30.223848 161.428724-61.681372s91.671162-71.638552 124.890209-119.486171c32.014629-46.228724 54.599924-97.628648 66.9952-152.643048 9.28061-41.237943 12.514743-83.03299 9.632915-124.656152l-29.780115 18.772114zM384.637562 312.189562c34.895238-22.02819 73.281829-33.781029 111.819581-36.128914l45.994667-29.080381c-60.771962-7.166781-121.628038 6.523124-174.143391 39.684876-52.371505 33.128838-90.761752 82.328381-110.2336 140.247771l45.966629-29.075504c18.681905-33.95779 45.73501-63.562362 80.596114-85.647848zM638.147048 712.084724c-34.895238 22.090362-73.252571 33.838324-111.790324 36.186209l-45.967848 29.080381c60.743924 7.166781 121.571962-6.552381 174.115353-39.714133 52.371505-33.099581 90.761752-82.328381 110.204342-140.247771l-45.93859 29.137676c-18.679467 33.80541-45.76061 63.529448-80.622933 85.557638z m-338.951315-63.914667" p-id="5172"></path><path d="M327.926248 771.566933c-14.961371-24.673524-34.461257-55.781181-58.538667-93.321752-2.991543 48.657067-19.374324 94.218971-49.134933 136.673524l-3.456-1.288534c24.797867-44.712229 36.740876-91.716267 35.838781-140.997485l-54.985143 35.269485c-8.081067 5.18339-15.006476 10.793448-20.773791 16.828953l-13.166933-2.071162 95.060114-60.971886-26.018133-40.56259-40.074972 25.703619c-8.081067 5.18339-15.006476 10.793448-20.77379 16.826514l-13.165714-2.068724 70.829104-45.429028c-4.248381-6.624305-13.064533-19.664457-26.4192-39.139962l30.602972-5.607619-5.602743 11.773562 15.39901 24.006704 41.006323-26.299733 5.612496-19.959467 29.258361 4.604343-72.691809 46.623695 26.548419 41.390324 61.509486-39.4496 6.016-21.383314 30.721219 4.831086-86.671848 55.591009c44.835352 23.441067 90.45699 26.895848 136.866133 10.364343l2.123581 3.312152c-10.571581 6.781562-15.400229 14.955276-14.532266 24.508953-50.369829 3.497448-93.105981-8.433371-128.185295-35.794895l-4.66042 2.990323c31.511162 49.128838 52.343467 80.936229 62.527391 95.435581l-11.067733 17.611581z" p-id="5173"></path><path d="M222.539581 822.275657l-14.509105-5.407695 3.435276-6.193981c22.293943-40.198095 34.063848-82.823314 35.052496-126.877257l-45.577753 29.2352c-7.638552 4.899352-14.251886 10.250971-19.657143 15.908571l-2.204038 2.306438-32.160914-5.059047 103.428876-66.339353-19.436495-30.301866-34.944 22.413409c-7.636114 4.898133-14.249448 10.249752-19.658362 15.907353l-2.202819 2.305219-32.163352-5.054172 79.157638-50.770895c-4.742095-7.161905-12.323352-18.340571-22.981486-33.880991l-5.313829-7.749485 51.569372-9.448838-9.269638 19.479162 10.279009 16.0256 33.926096-21.758781 6.4512-22.942477 50.451504 7.940877-81.06179 51.989942 19.966781 31.1296 54.428038-34.908647 6.854705-24.365105 51.914362 8.162743-91.0592 58.404571c22.219581 10.118095 44.808533 15.239314 67.284114 15.239315 18.13699 0 36.686019-3.330438 55.131428-9.901105l4.561677-1.624991 8.027428 12.519619-5.129752 3.29021c-8.560152 5.49059-12.405029 11.649219-11.752838 18.826971l0.5632 6.200077-6.211048 0.431542c-5.822171 0.403505-11.628495 0.609524-17.255619 0.609524-38.1696 0-72.189562-9.403733-101.372343-27.983238 26.155886 40.651581 43.921067 67.67299 52.874972 80.420572l2.328381 3.315809-18.473448 29.403429-5.12-8.443124c-13.01699-21.468648-29.448533-47.761067-48.943543-78.320152-5.607619 43.04701-21.889219 84.011886-48.526629 122.010819l-2.701409 3.854628z m41.909638-163.022019l10.070552 15.701333c21.160229 32.992305 39.119238 61.5424 53.486934 85.027353l3.679085-5.856305c-10.86781-15.748876-30.672457-46.044648-60.35139-92.317257l-3.29021-5.128533 0.00122-0.001219-29.736229-46.359162 0.001219-0.001219-17.123962-26.695924 1.937067-4.069181-9.643886 1.7664c10.797105 15.790324 17.60061 25.908419 21.216305 31.546514l3.290209 5.130972 26.463086 41.256228z m-5.783162 9.742629l0.06461 3.525485c0.39741 21.710019-1.684724 43.101867-6.219581 64.075581a247.66781 247.66781 0 0 0 10.794666-58.725181l0.758248-12.337981-5.397943 3.462096z m75.652876 8.017676c17.969981 5.859962 37.395505 8.810057 58.158324 8.810057 3.554743 0 7.186286-0.086552 10.850743-0.257219 0.497371-4.003352 1.857829-7.772648 4.074057-11.295695-14.350629 3.708343-28.707352 5.5808-42.859276 5.5808-10.079086 0-20.166705-0.948419-30.223848-2.837943z m10.886096-77.435124l-2.6112 9.283048 12.138057-7.784838-9.526857-1.49821z m-50.639239-31.784229l-2.211352 7.861639 10.277791-6.59261-8.066439-1.269029z" fill="#040000" p-id="5174"></path><path d="M389.666133 459.722362l26.07421-0.364495c-4.174019 5.79779-6.193981 15.657448-6.025753 29.570438l40.074972-25.703619 4.810362-17.106896 24.468724 5.336991-54.053791 34.668495c11.879619-0.608305 20.28739-0.157257 25.206248 1.360457 4.920076 1.518933 8.441905 3.933867 10.565485 7.2448 1.06179 1.655467 1.841981 3.894857 2.318629 6.691353 0.4864 2.809905-0.462019 6.137905-2.807467 9.980343-2.360076 3.850971-5.089524 4.048457-8.181028 0.572952-3.0976-3.453562-7.439848-7.497143-13.020648-12.095391-5.5808-4.599467-12.14781-7.982324-19.674209-10.166857l-9.319619 5.976991c-1.789562 13.617981-3.680305 25.729219-5.635658 36.328838-1.969981 10.61181-4.995657 22.302476-9.091657 35.045181l-3.858285 0.135314c2.678248-14.954057 4.167924-32.466895 4.459276-52.519009 0.29501-20.049676-1.810286-38.36099-6.309791-54.955886z m107.044572 29.492419c-8.018895 28.511086-17.670095 52.427581-28.962134 71.738514-11.283505 19.321905-26.033981 38.715733-44.240457 58.170515l-2.123581-3.312153c19.182933-24.7552 33.451886-48.330362 42.793448-70.680381 9.341562-22.347581 13.493638-45.258362 12.463543-68.750628l26.07299-0.364496-5.332114 8.094477c12.061257 2.396648 26.666667 2.962286 43.829638 1.683504 17.156876-1.255619 33.244648-4.564114 48.232838-9.904762 14.996724-5.329676 28.266057-11.30179 39.797029-17.930971l2.123581 3.310933c-8.8832 8.035962-12.622019 15.891505-11.204267 23.547124-11.71261 3.62301-25.803581 6.61699-42.246095 8.9856-16.459581 2.377143-31.241752 2.913524-44.366019 1.581105-13.130362-1.311695-25.403733-3.370667-36.8384-6.168381z m75.661409 21.577143l28.997486 0.095086-7.726324 8.461409a3329.827352 3329.827352 0 0 1-4.606781 62.544457l46.598095-29.886171 6.947353-21.983086 28.857295 6.028191-173.342476 111.1808c-8.708876 5.583238-15.939048 11.390781-21.707581 17.426285l-13.166933-2.071162 120.223695-77.1072c-0.766781-24.428495-4.461714-49.31901-11.073829-74.688609z m-103.425219 49.977295l70.829105-45.429029 5.343086-16.279161 23.938438 4.510476-70.829105 45.427809c-4.97981 3.195124-10.347276 7.804343-16.11459 13.841067l-13.166934-2.071162z m2.762362 22.765714c17.8176 1.827352 30.337219 3.910705 37.569829 6.281753 7.220419 2.379581 11.761371 5.712457 13.621638 9.9584 1.854171 4.269105 2.183314 8.530895 0.981333 12.808533-1.201981 4.276419-2.773333 6.632838-4.665295 7.081448-1.905371 0.457143-5.611276-2.243048-11.096991-8.071315a213.319924 213.319924 0 0 0-17.939504-13.614323c-6.20861-4.199619-12.934095-7.862857-20.205715-10.99581l1.734705-3.448686z m8.758857-183.220419l25.541486-1.192228c-4.1728 5.79779-6.142781 16.408381-5.895314 31.823238l45.665524-29.288838 5.212647-18.5344 26.862933 4.970057-53.121219 34.071162c10.9056-0.749714 19.618133-0.496152 26.1376 0.761905 6.51459 1.281219 10.677638 3.669333 12.495239 7.175314 1.802971 3.516952 2.03459 7.275276 0.649752 11.268876-1.377524 4.003352-2.696533 6.403657-3.933867 7.197257-1.251962 0.803352-3.064686 0.028038-5.451581-2.347886a169.326933 169.326933 0 0 0-13.421714-10.670323c-4.866438-3.487695-11.922286-6.958324-21.137067-10.396038l-18.639238 11.9552c-1.533562 12.669562-3.707124 24.979505-6.568228 36.92739l-3.857067 0.138971c0.47299-25.220876-3.031771-49.846857-10.539886-73.859657z m30.926019 150.757181c18.792838 1.966324 31.025981 4.636038 36.701867 8.004267 5.662476 3.380419 9.3952 6.445105 11.1616 9.200152 1.418971 2.211352 2.385676 5.098057 2.915962 8.647924 0.522971 3.57181 0.125562 6.346362-1.208076 8.368762-1.333638 2.023619-2.319848 3.240229-2.93181 3.632762-1.862705 1.194667-4.405638 0.3072-7.644647-2.691657-3.230476-2.985448-7.599543-7.393524-13.085258-13.22301-5.500343-5.819733-14.711467-11.9808-27.644342-18.492952l1.734704-3.446248z" p-id="5175"></path><path d="M478.592 671.175924l-32.160914-5.059048 66.133333-42.415543c-2.433219-1.557943-5.206552-4.046019-8.640609-7.675123a208.386438 208.386438 0 0 0-17.167848-13.00602c-5.861181-3.965562-12.320914-7.480076-19.191467-10.438704l-5.940419-2.558781 6.528-12.9792 4.180114 0.429105c18.464914 1.893181 31.172267 4.037486 38.847391 6.5536 8.905143 2.934248 14.724876 7.41059 17.3056 13.304685 2.16259 4.977371 2.734324 10.031543 1.710324 15.062553l26.288762-16.860648c-0.074362 0.002438-0.146286 0.002438-0.219429 0.002438-3.231695 0-6.509714-1.578667-10.018133-4.827428-3.363352-3.108571-7.867733-7.658057-13.382705-13.51802-4.974933-5.263848-13.70819-11.062857-25.947429-17.226361l-5.441828-2.740419 2.277181-4.525105-2.234514 1.4336c-4.549486 2.919619-9.596343 7.266743-14.997943 12.920685l-2.204038 2.306439-13.232762-2.082134c-11.209143 18.568533-25.703619 37.397943-43.12381 56.0128l-5.352838 5.719772-8.674743-13.528991 2.635581-3.401143c18.761143-24.209067 32.887467-47.524571 41.987657-69.2992 4.910324-11.745524 8.340724-23.74461 10.275353-35.897295-0.587581 2.452724-1.699352 5.023695-3.328 7.69341-3.019581 4.92739-6.686476 5.961143-9.233067 5.961142-3.11101 0.001219-6.040381-1.516495-8.704-4.511695-2.901333-3.234133-7.059505-7.089981-12.341638-11.4432-4.255695-3.5072-9.262324-6.25859-14.910172-8.199314l-4.537295 2.909867c-1.660343 12.35139-3.446248 23.720229-5.31139 33.82979-2.021181 10.884876-5.143162 22.929067-9.283048 35.804648l-1.310476 4.075276-15.681829 0.552228 1.3312-7.432533c2.6112-14.574933 4.080152-31.913448 4.36541-51.531581 0.282819-19.375543-1.770057-37.2992-6.100114-53.2736l-2.055315-7.578819 46.031238-0.644876-7.072914 9.825524c-1.664 2.311314-3.536457 6.608457-4.400762 14.55299l28.2624-18.127238 5.738057-20.406857 33.453105 7.296a225.759086 225.759086 0 0 0-9.090438-44.101486l-2.357638-7.539809 46.031238-2.147962-7.366705 10.236343c-1.744457 2.423467-3.708343 7.265524-4.455619 16.926476l34.038248-21.831924 6.0928-21.658819 47.486781 8.785676-48.560762 31.146667c2.333257 0.213333 4.49341 0.510781 6.469486 0.892343 8.417524 1.654248 14.047086 5.137067 16.752152 10.35459 2.567314 5.007848 2.908648 10.556952 0.997181 16.070705-1.924876 5.59299-3.84 8.686933-6.4 10.33021a8.048152 8.048152 0 0 1-4.355657 1.271466c-3.709562 0-6.637714-2.411276-8.552838-4.293486a164.522667 164.522667 0 0 0-12.810972-10.174171c-3.915581-2.805029-9.58781-5.678324-16.887466-8.554057l-13.642362 8.750324a338.0224 338.0224 0 0 1-5.063924 29.230324l12.06979-0.169448-6.428038 9.757257c9.61219 1.054476 20.683581 1.119086 33.053257 0.197486 16.526629-1.209295 32.215771-4.4288 46.640762-9.568305 14.620038-5.1968 27.674819-11.075048 38.804724-17.473829l5.033448-2.894019 8.048152 12.544-3.830247 3.464534c-7.171657 6.486552-10.299733 12.515962-9.300115 17.917562l0.98621 5.330895-5.178515 1.601828c-11.498057 3.555962-25.38179 6.554819-41.295238 8.918553l4.589715 0.864305-6.696229 4.294704 36.588495 0.119467-15.561143 17.041067c-1.060571 16.309638-2.225981 32.475429-3.477942 48.236495l34.375923-22.048914 7.945753-25.136762 48.846019 10.204647-185.891353 119.230172c-8.252952 5.291886-15.1808 10.844648-20.590933 16.505905l-2.205257 2.311314z m14.164114-78.808991c0.280381 0.186514 0.560762 0.375467 0.839924 0.5632a220.596419 220.596419 0 0 1 18.462476 14.010515l0.501029 0.475428c2.2784 2.421029 3.910705 3.92899 5.033447 4.861562 0.134095-0.381562 0.276724-0.826514 0.421791-1.344609 0.816762-2.90499 0.586362-5.761219-0.703391-8.7296-1.109333-2.5344-4.549486-4.821333-9.938895-6.597486-3.449905-1.131276-8.337067-2.212571-14.616381-3.23901z m22.445105-47.012571c18.279619 2.065067 29.765486 4.776229 36.005791 8.479695 6.580419 3.93021 10.888533 7.575162 13.181561 11.150629 1.899276 2.959848 3.146362 6.571886 3.813181 11.038476 0.744838 5.091962 0.021943 9.333029-2.147962 12.623238-0.314514 0.476648-0.613181 0.916724-0.899657 1.323886l12.07101-7.742172c-0.978895-22.734019-4.579962-46.188495-10.720305-69.780724l-51.303619 32.906972z m16.085333 14.709028c4.244724 2.95741 7.710476 5.867276 10.446019 8.762515 5.329676 5.663695 9.630476 10.012038 12.792686 12.932876 0.353524 0.327924 0.664381 0.591238 0.931353 0.804571 0.128-0.186514 0.26819-0.393752 0.419352-0.624152 0.168229-0.254781 0.681448-1.301943 0.266971-4.13379-0.398629-2.672152-1.077638-4.777448-2.013866-6.237867-0.694857-1.084952-2.809905-3.46819-9.157486-7.25821-2.021181-1.199543-5.979429-2.718476-13.685029-4.245943z m115.445029-22.946133l-2.987886 9.457372 11.856457-7.604419-8.868571-1.852953z m-66.549029-20.204495a361.602438 361.602438 0 0 1 5.584458 28.352609c0.62781-8.704 1.226362-17.486019 1.795657-26.308266l0.129219-2.018743-7.509334-0.0256z m-79.214933-20.456838c-5.228495 17.712762-11.1616 33.739581-17.732267 47.907352l51.424305-32.982552 3.126857-9.529295a138.84099 138.84099 0 0 1-4.851809-0.405943c-11.167695-1.11421-21.896533-2.789181-31.967086-4.989562z m-18.080914-14.06781c0.091429 16.671695-2.375924 33.186133-7.361829 49.327543 5.482057-12.828038 10.472838-27.12259 14.927238-42.769067l-3.143924-0.625371 3.986286-6.051352-8.407771 0.118247z m66.3552 23.653181l-1.244648 3.796115 4.857905-3.115886-3.613257-0.680229z m-151.826286-40.33219c2.978133 13.407086 4.545829 27.91741 4.675048 43.295695 0.554667-3.740038 1.098362-7.593448 1.629866-11.551695l-0.049981-4.13501-1.265371 0.06461 1.255619-0.805791-0.042667-3.575466c-0.11459-9.470781 0.731429-17.226362 2.568534-23.415467l-8.771048 0.123124z m41.373257 26.331428a56.290743 56.290743 0 0 1 4.184991 3.131734c5.279695 4.349562 9.590248 8.315124 12.834133 11.804038 1.39581-2.633143 1.378743-4.009448 1.290971-4.516572-0.443733-2.59901-1.094705-3.898514-1.444571-4.442209-1.315352-2.050438-3.748571-3.6352-7.23261-4.7104-1.588419-0.490057-4.484876-1.055695-9.632914-1.266591z m6.556038-11.715047c2.584381 0.312076 4.798171 0.75581 6.673067 1.333638 6.30979 1.948038 10.986057 5.237029 13.898362 9.777981 1.507962 2.352762 2.584381 5.365029 3.197562 8.957562 0.185295 1.066667 0.247467 2.166248 0.188952 3.295085A150.295162 150.295162 0 0 0 470.552381 476.648838l-0.275505-6.273219 14.679772-0.2048c0.008533-4.999314-0.146286-9.984-0.463238-14.951619l-39.148496 25.106286z m170.531353-8.612572c-7.578819 3.525486-15.73059 6.841295-24.389486 9.919391-9.654857 3.440152-19.824152 6.075733-30.390857 7.883581a226.279619 226.279619 0 0 0 15.947581-1.749334c13.983695-2.013867 26.320457-4.510476 36.759162-7.434971 0.158476-2.88061 0.849676-5.756343 2.0736-8.618667z m-156.963353-18.416152l-1.319009 4.690895 5.791695-3.714438-4.472686-0.976457z m81.763962-25.359848c1.475048 0.877714 2.834286 1.762743 4.085029 2.658743a177.539657 177.539657 0 0 1 12.969447 10.235124c0.163352-0.424229 0.337676-0.902095 0.524191-1.442133 0.833829-2.4064 0.733867-4.469029-0.310857-6.504838-0.859429-1.656686-3.870476-3.114667-8.248076-3.975315-2.564876-0.496152-5.586895-0.820419-9.019734-0.971581z m-52.167924-21.895314a237.921524 237.921524 0 0 1 5.512534 25.118476l-0.001219-0.115809c-0.16701-10.421638 0.642438-18.82819 2.462476-25.374477l-7.973791 0.37181z m66.844038-15.913448l-1.768838 6.291505 8.007924-5.135847-6.239086-1.155658z" fill="#040000" p-id="5176"></path><path d="M717.897143 411.611429l-24.956343-38.909562c-20.592152 17.11421-32.018286 28.715886-34.233295 34.811123l-17.9456-9.5232c8.3456-6.1184 13.816686-17.423848 16.407162-33.891961 2.59901-16.455924 3.152457-32 1.657904-46.633448l-24.231009 15.541638c-8.082286 5.18339-15.006476 10.793448-20.772572 16.830171l-13.168152-2.071161 94.127543-60.372115 5.212648-18.533181 27.795504 4.372724-65.237333 41.841372 22.61699-1.65181c-6.036724 6.994895-10.627657 16.9472-13.739885 29.844724-3.398705 13.865448-7.714133 28.317257-12.962134 43.3664l73.493943-49.475048c-10.543543-4.136229-22.830324-7.556876-36.833524-10.259505l1.2032-4.277638c36.36541-0.722895 56.927086 1.278781 61.714286 5.985524 4.779886 4.729905 6.5024 9.467124 5.168762 14.211657-1.342171 4.766476-2.630705 7.530057-3.869257 8.323657-1.251962 0.803352-2.889143 0.301105-4.918857-1.518933-4.337371-2.658743-10.319238-5.833143-17.9456-9.521981a16156.737829 16156.737829 0 0 0-37.951391 29.014553l19.159772-2.941562-3.738819 10.577676 16.991085 26.491124 25.163581-16.138972 4.811581-17.108114 26.333867 4.142324-53.121219 34.071162 25.485409 39.738514 47.280762-43.177448 3.587658 3.541334c-60.558629 61.442438-92.047848 96.427886-94.454248 104.980723l-20.870095-9.981561c9.851124-7.87139 27.524876-22.710857 53.001752-44.511086l-27.078705-42.221714-35.414552 22.714514-10.122972 8.829562-11.704076-1.840762 54.056229-34.669714z m49.796876-133.591772l49.381181 76.990172c3.542552 5.523505 8.6272 12.779276 15.268571 21.753904l-10.793447 13.934934c-11.070171-18.605105-23.932343-39.365486-38.625524-62.273829-14.685867-22.896152-27.484648-42.146133-38.367086-57.767009l27.806476-3.8144-4.670171 11.176228z m77.902019 135.814095l-2.655086-4.138666c10.032762-4.865219 19.074438-9.898667 27.156724-15.082057 4.33981-2.783086 7.494705-5.391848 9.454934-7.816534 1.9456-2.414933 0.313295-7.010743-4.90301-13.797181l-83.364571-129.974857c-5.310171-8.278552-11.645562-17.451886-18.985448-27.550476l25.813333-4.872533-3.7376 10.577676 97.169067 151.499581c9.456152 13.397333 8.293181 26.61181-3.512076 39.642209-6.562133-7.473981-20.712838-6.979048-42.436267 1.512838z" p-id="5177"></path><path d="M719.867124 521.79139l-6.46461-3.000076-29.638704-14.176304 7.593447-6.0672c9.264762-7.402057 25.673143-21.161448 48.80701-40.929524l-20.920077-32.619276-29.904457 19.180495-11.928381 10.404571-30.357942-4.775009 62.423771-40.037181-17.92-27.940572c-22.13181 18.846476-26.349714 25.648762-27.118933 27.76381l-2.39421 6.587733-32.720457-17.364114 7.837257-5.744153c6.961981-5.105371 11.668724-15.172267 13.989791-29.922742 1.917562-12.139276 2.685562-23.866514 2.299123-34.9952l-15.559923 9.980342c-7.634895 4.896914-14.248229 10.249752-19.655924 15.909791l-2.204038 2.306438-32.163353-5.059048 105.678019-67.781485 6.052572-21.514972 39.867733 6.272-1.59939-2.293028 48.232838-6.61821-7.547124 18.065067 47.655009 74.299733c3.505981 5.46621 8.565029 12.673219 15.038172 21.418667l2.745295 3.709562-19.101257 24.658895-4.576305-7.690971a1809.609143 1809.609143 0 0 0-13.548495-22.384153l-60.209981 38.61821 18.29181 28.522057 46.216533-42.204648 12.041752 11.884495-4.2752 4.338591c-80.78019 81.95901-91.899124 98.884267-92.929219 102.357333l-2.032152 6.840076z m-13.386362-19.822933l6.8352 3.269486c3.181714-4.870095 9.823086-13.385143 24.271238-29.40221-12.963352 11.026286-23.365486 19.764419-31.106438 26.132724z m16.443733-93.811809l31.616 49.297066 2.338134-2.485638-27.772343-43.303009-21.892876-34.133334 1.339733-3.787581-7.010743 1.076419 21.382095 33.336077z m-69.857524-10.538667l3.301181 1.751771c1.802971-2.492952 4.46781-5.625905 8.494324-9.692647l-11.795505 7.940876z m67.626667-21.646629l12.091733 18.850134 18.082134-11.598019 5.651505-20.089905 45.547276 7.164343a2477.63261 2477.63261 0 0 0-24.272457-38.582857c-14.410362-22.467048-27.274971-41.837714-38.236648-57.573181l-0.585143-0.839924-52.921295 33.943162 13.344914-0.974019-9.608533 11.132343c-5.380876 6.235429-9.563429 15.417295-12.42941 27.292038a457.392762 457.392762 0 0 1-7.516647 26.933638l48.6144-32.726553c-7.441067-2.299124-15.630629-4.31421-24.478477-6.022095l-6.508495-1.255619 4.224-15.010133 4.521448-0.09021c4.844495-0.096305 9.475657-0.145067 13.767924-0.145066 39.061943 0 48.379124 3.982629 52.342247 7.878704 8.048152 7.964038 8.118857 15.383162 6.763276 20.206934-1.871238 6.649905-3.738819 10.069333-6.446323 11.806476a8.421181 8.421181 0 0 1-4.553143 1.334857c-2.456381 0-4.8384-0.997181-7.264305-3.0464-3.451124-2.089448-8.02499-4.547048-13.635048-7.330133-5.4016 4.119162-10.747124 8.201752-16.040228 12.246552l5.686857-0.872838-6.141562 17.367771z m44.628114 0.887467l-1.408 5.009067 6.548724-4.200838-5.140724-0.808229z m-10.118095-101.507657c9.736533 14.228724 20.757943 30.928457 32.852114 49.783467 12.533029 19.542552 23.993295 37.928229 34.140648 54.777904l2.512457-3.242666c-5.345524-7.315505-9.629257-13.481448-12.764647-18.36861l-51.107353-79.680609 1.793219-4.28861-7.426438 1.019124z m-11.718705 61.397333c5.221181 2.608762 9.597562 4.963962 13.060877 7.030248 0.238933-0.702171 0.509562-1.562819 0.80579-2.612419 0.279162-0.9984 1.027657-3.659581-3.588876-8.228572-0.672914-0.572952-4.9152-3.137829-26.665448-4.046019 2.446629 0.83261 4.8128 1.695695 7.093638 2.590477l10.815391 4.242285-1.521372 1.024z m-78.225066-15.761066c0.504686 6.66819 0.607086 13.546057 0.309638 20.593371 1.963886-8.068876 4.529981-15.149105 7.669028-21.176076l-7.978666 0.582705z m39.138743-45.266896l-1.809067 6.434134 8.411428-5.395505-6.602361-1.038629z m183.561752 145.759086l-4.509257-5.135848c-1.852952-2.11139-5.096838-3.181714-9.640229-3.181714-6.473143 0-15.217371 2.135771-25.994971 6.3488l-4.651886 1.818819-9.059962-14.121447 6.178134-2.996419c9.692648-4.699429 18.616076-9.654857 26.526476-14.728534 3.844876-2.466133 6.048914-4.384914 7.303314-5.717333-0.304762-0.950857-1.265371-3.10979-4.293486-7.052191l-0.298666-0.424228-83.364572-129.974857c-5.194362-8.098133-11.339581-17.014248-18.784305-27.256686l-5.662476-7.787276 45.680153-8.622324-6.273219 17.750552 95.488 148.879848c11.037257 15.725714 9.636571 32.023162-4.054553 47.134476l-4.588495 5.066362z m-14.149486-20.509257c5.156571 0 9.570743 0.9728 13.19741 2.903771 6.448762-9.263543 6.270781-18.166248-0.443734-27.679695l-0.151161-0.224305-98.77821-154.0096 1.2032-3.403581-6.007467 1.133715c5.151695 7.269181 9.630476 13.878857 13.586286 20.043581l83.224381 129.757866c3.048838 3.970438 10.48381 13.9008 4.6592 21.129753-2.401524 2.972038-5.968457 5.953829-10.910476 9.123352a211.626667 211.626667 0 0 1-2.045562 1.295848 43.658971 43.658971 0 0 1 2.466133-0.070705z" fill="#040000" p-id="5178"></path></svg>